<?xml version="1.0" standalone="no"?>
<!DOCTYPE svg PUBLIC "-//W3C//DTD SVG 20010904//EN"
 "http://www.w3.org/TR/2001/REC-SVG-20010904/DTD/svg10.dtd">
<svg version="1.0" xmlns="http://www.w3.org/2000/svg"
 width="191.000000pt" height="191.000000pt" viewBox="0 0 191.000000 191.000000"
 preserveAspectRatio="xMidYMid meet">
<metadata>
Created by potrace 1.11, written by Peter Selinger 2001-2013
</metadata>
<g transform="translate(0.000000,191.000000) scale(0.100000,-0.100000)"
fill="#000000" stroke="none">
<path d="M0 955 l0 -935 955 0 955 0 0 935 0 935 -955 0 -955 0 0 -935z m1865
896 c6 -1 10 -156 10 -444 l0 -442 -232 3 -233 3 0 229 0 230 -245 0 -245 0 0
-245 0 -245 230 0 230 0 0 -229 0 -230 248 2 247 2 -2 -200 c-1 -110 -2 -207
-2 -215 -1 -13 -59 -15 -458 -15 l-458 0 -3 228 c-2 207 -4 227 -20 227 -26 1
-414 1 -444 1 l-26 -1 0 -220 c0 -120 -3 -223 -5 -227 -4 -6 -391 -10 -417 -4
-3 0 -5 301 -5 668 l0 668 228 3 227 2 0 224 c0 122 2 225 4 227 4 3 1342 4
1371 0z"/>
<path d="M1555 1816 c-64 -28 -115 -104 -115 -172 0 -30 20 -85 44 -117 53
-73 182 -88 254 -30 78 64 98 171 45 247 -51 73 -153 105 -228 72z m153 -30
c44 -23 74 -71 80 -126 17 -176 -217 -248 -300 -92 -78 145 73 294 220 218z"/>
<path d="M1115 1705 c-46 -45 -19 -118 43 -118 69 0 99 80 46 122 -35 27 -59
26 -89 -4z"/>
<path d="M615 1346 c-46 -28 -72 -64 -85 -118 -38 -150 122 -277 260 -206 26
13 57 41 75 66 24 36 29 52 28 96 -2 80 -48 150 -117 176 -44 16 -122 9 -161
-14z m185 -24 c125 -92 72 -285 -81 -297 -123 -10 -212 123 -155 233 19 37 58
71 92 82 40 13 114 3 144 -18z"/>
<path d="M193 1244 c-20 -20 -24 -31 -19 -57 8 -39 14 -45 54 -57 68 -19 113
69 62 120 -27 27 -66 25 -97 -6z"/>
<path d="M214 910 c-47 -10 -92 -41 -118 -80 -103 -153 62 -348 229 -271 74
34 115 104 109 188 -7 102 -118 185 -220 163z m111 -40 c107 -52 114 -210 13
-277 -100 -67 -242 1 -251 121 -10 129 119 213 238 156z"/>
<path d="M651 784 c-27 -34 -27 -64 -1 -92 37 -40 116 -18 121 33 3 35 0 44
-21 65 -29 29 -74 26 -99 -6z"/>
<path d="M1115 447 c-128 -42 -173 -196 -88 -298 87 -103 265 -77 311 46 36
96 6 186 -78 234 -44 25 -103 32 -145 18z m136 -40 c77 -52 102 -144 58 -216
-34 -56 -72 -79 -144 -86 -19 -2 -89 26 -107 42 -60 54 -67 164 -14 226 52 61
145 76 207 34z"/>
<path d="M1570 328 c-27 -29 -25 -69 3 -96 46 -44 117 -14 117 48 0 63 -77 94
-120 48z"/>
</g>
</svg>
